<?xml version="1.0" standalone="no"?><!DOCTYPE svg PUBLIC "-//W3C//DTD SVG 1.1//EN" "http://www.w3.org/Graphics/SVG/1.1/DTD/svg11.dtd"><svg t="1514186935990" class="icon" style="" viewBox="0 0 1024 1024" version="1.1" xmlns="http://www.w3.org/2000/svg" p-id="5301" xmlns:xlink="http://www.w3.org/1999/xlink" width="32" height="32"><defs><style type="text/css"></style></defs><path d="M994.133333 108.8H548.266667C200.533333 104.533333 55.466667 315.733333 55.466667 520.533333c0 115.2 34.133333 215.466667 104.533333 285.866667 70.4 72.533333 170.666667 113.066667 283.733333 113.066667 110.933333 0 206.933333-38.4 277.333334-110.933334 66.133333-66.133333 104.533333-160 110.933333-266.666666 119.466667-68.266667 149.333333-202.666667 151.466667-209.066667l8.533333-40.533333h-59.733333c19.2-29.866667 40.533333-78.933333 51.2-134.4l10.666666-49.066667zM896 270.933333l-40.533333 66.133334H938.666667c-8.533333 29.866667-42.666667 121.6-128 170.666666l-21.333334 8.533334v23.466666c-4.266667 93.866667-38.4 179.2-98.133333 238.933334-61.866667 64-149.333333 98.133333-247.466667 98.133333-100.266667 0-189.866667-36.266667-253.866666-100.266667-61.866667-61.866667-93.866667-151.466667-93.866667-256 0-98.133333 36.266667-187.733333 102.4-253.866666 78.933333-74.666667 196.266667-115.2 341.333333-115.2H940.8c-8.533333 42.666667-25.6 87.466667-44.8 119.466666z" fill="#ffffff" p-id="5302"></path><path d="M341.333333 497.066667v-21.333334c0-17.066667-14.933333-32-32-32s-32 14.933333-32 34.133334v21.333333c0 17.066667 14.933333 32 32 32s32-14.933333 32-34.133333z m185.6-19.2v21.333333c0 17.066667 14.933333 32 32 32s32-14.933333 32-32v-21.333333c0-17.066667-14.933333-32-32-32s-32 12.8-32 32z m17.066667 187.733333C512 689.066667 473.6 704 433.066667 704c-40.533333 0-78.933333-12.8-110.933334-38.4-8.533333-6.4-23.466667-6.4-29.866666 4.266667-6.4 8.533333-6.4 23.466667 4.266666 29.866666 40.533333 29.866667 87.466667 46.933333 136.533334 46.933334 49.066667 0 96-14.933333 136.533333-46.933334 8.533333-6.4 10.666667-21.333333 4.266667-29.866666-6.4-10.666667-21.333333-12.8-29.866667-4.266667z" fill="#ffffff" p-id="5303"></path></svg>