<?xml version="1.0" standalone="no"?><!DOCTYPE svg PUBLIC "-//W3C//DTD SVG 1.1//EN" "http://www.w3.org/Graphics/SVG/1.1/DTD/svg11.dtd"><svg t="1514185810572" class="icon" style="" viewBox="0 0 1024 1024" version="1.1" xmlns="http://www.w3.org/2000/svg" p-id="5076" xmlns:xlink="http://www.w3.org/1999/xlink" width="32" height="32"><defs><style type="text/css"></style></defs><path d="M983.466667 157.866667l10.666666-49.066667H548.266667C200.533333 104.533333 55.466667 315.733333 55.466667 520.533333c0 115.2 34.133333 215.466667 104.533333 285.866667 70.4 72.533333 170.666667 113.066667 283.733333 113.066667 110.933333 0 206.933333-38.4 277.333334-110.933334 66.133333-66.133333 104.533333-160 110.933333-266.666666 119.466667-68.266667 149.333333-202.666667 151.466667-209.066667l8.533333-40.533333h-59.733333c19.2-29.866667 38.4-76.8 51.2-134.4zM277.333333 497.066667v-21.333334c0-17.066667 14.933333-32 32-32s32 14.933333 32 32v21.333334c0 17.066667-14.933333 32-32 32s-32-12.8-32-32z m292.266667 200.533333c-40.533333 29.866667-87.466667 46.933333-136.533333 46.933333-49.066667 0-96-14.933333-136.533334-46.933333-8.533333-6.4-10.666667-21.333333-4.266666-29.866667 6.4-8.533333 21.333333-10.666667 29.866666-4.266666 32 23.466667 70.4 38.4 110.933334 38.4 40.533333 0 78.933333-12.8 110.933333-38.4 8.533333-6.4 23.466667-6.4 29.866667 4.266666 6.4 10.666667 6.4 23.466667-4.266667 29.866667z m21.333333-200.533333c0 17.066667-14.933333 32-32 32s-32-14.933333-32-32v-21.333334c0-17.066667 14.933333-32 32-32s32 14.933333 32 32v21.333334z" fill="#d81e06" p-id="5077"></path></svg>