<?xml version="1.0" standalone="no"?><!DOCTYPE svg PUBLIC "-//W3C//DTD SVG 1.1//EN" "http://www.w3.org/Graphics/SVG/1.1/DTD/svg11.dtd"><svg t="1513386085182" class="icon" style="" viewBox="0 0 1024 1024" version="1.1" xmlns="http://www.w3.org/2000/svg" p-id="1855" xmlns:xlink="http://www.w3.org/1999/xlink" width="200" height="200"><defs><style type="text/css"></style></defs><path d="M795.236829 961.335798l0.080841-0.107447L311.742047 534.583344c-5.389754-4.954849-21.8701-23.75503 4.226255-48.882314l479.349369-422.926312-0.080841-0.135076c7.379061-6.517437 12.145621-15.998369 12.145621-26.610054 0-19.713994-15.969717-35.68371-35.658128-35.68371-9.04705 0-17.206894 3.476171-23.509437 9.023514l-0.080841-0.109494L252.384148 446.571848c-78.987982 64.309678-2.505054 128.622426-2.505054 128.622426l498.254951 439.544805 0.080841-0.135076c6.30152 5.547343 14.462387 9.049097 23.509437 9.049097 19.688411 0 35.658128-15.995299 35.658128-35.68371C807.382451 977.333144 802.61589 967.851189 795.236829 961.335798z" p-id="1856" fill="#e6e6e6"></path></svg>